<?xml version="1.0" encoding="iso-8859-1"?>
<!-- Generator: Adobe Illustrator 19.0.0, SVG Export Plug-In . SVG Version: 6.00 Build 0)  -->
<svg version="1.1" id="Capa_1" xmlns="http://www.w3.org/2000/svg" xmlns:xlink="http://www.w3.org/1999/xlink" x="0px" y="0px"
	 viewBox="0 0 512 512" style="enable-background:new 0 0 512 512;" xml:space="preserve">
<g>
	<g>
		<g>
			<rect x="85.333" width="341.333" height="42.667"/>
			<path d="M426.667,85.333H85.333c-23.573,0-42.667,19.093-42.667,42.667v256c0,23.573,19.093,42.667,42.667,42.667h341.333
				c23.573,0,42.667-19.093,42.667-42.667V128C469.333,104.427,450.24,85.333,426.667,85.333z M256,144c26.453,0,48,21.547,48,48
				c0,26.56-21.547,48-48,48s-48-21.44-48-48C208,165.547,229.547,144,256,144z M362.667,362.667H149.333v-32
				c0-35.52,71.147-53.333,106.667-53.333s106.667,17.813,106.667,53.333V362.667z"/>
			<rect x="85.333" y="469.333" width="341.333" height="42.667"/>
		</g>
	</g>
</g>
<g>
</g>
<g>
</g>
<g>
</g>
<g>
</g>
<g>
</g>
<g>
</g>
<g>
</g>
<g>
</g>
<g>
</g>
<g>
</g>
<g>
</g>
<g>
</g>
<g>
</g>
<g>
</g>
<g>
</g>
</svg>
