<?xml version="1.0" encoding="iso-8859-1"?>
<!-- Generator: Adobe Illustrator 19.0.0, SVG Export Plug-In . SVG Version: 6.00 Build 0)  -->
<svg version="1.1" id="Capa_1" xmlns="http://www.w3.org/2000/svg" xmlns:xlink="http://www.w3.org/1999/xlink" x="0px" y="0px"
	 viewBox="0 0 460 460" style="enable-background:new 0 0 460 460;" xml:space="preserve">
<g id="XMLID_1047_">
	<g id="XMLID_1050_">
		<path d="M230,260c-16.542,0-30,13.458-30,30s13.458,30,30,30s30-13.458,30-30S246.542,260,230,260z"/>
	</g>
	<g id="XMLID_1055_">
		<path d="M230,200c-49.626,0-90,40.374-90,90s40.374,90,90,90s90-40.374,90-90S279.626,200,230,200z M230,350
			c-33.084,0-60-26.916-60-60s26.916-60,60-60s60,26.916,60,60S263.084,350,230,350z"/>
	</g>
	<g id="XMLID_1064_">
		<path d="M280,130v-30h30V10H150v90h30v30H0v320h460V130H280z M180,40h100v30H180V40z M230,410c-66.168,0-120-53.832-120-120
			s53.832-120,120-120s120,53.832,120,120S296.168,410,230,410z M400,210c-11.028,0-20-8.973-20-20s8.972-20,20-20s20,8.973,20,20
			S411.028,210,400,210z"/>
	</g>
</g>
<g>
</g>
<g>
</g>
<g>
</g>
<g>
</g>
<g>
</g>
<g>
</g>
<g>
</g>
<g>
</g>
<g>
</g>
<g>
</g>
<g>
</g>
<g>
</g>
<g>
</g>
<g>
</g>
<g>
</g>
</svg>
